PathFileType	4	(X/Y/Z)	 New Session 108.trc
DataRate	CameraRate	NumFrames	NumMarkers	Units	OrigDataRate	OrigDataStartFrame	OrigNumFrames
100	100	12	14	m	100	473	945
Frame#	Time	C7			T8			IJ			PX			AA			AC			AI			TS			SC			GH			LE			ME			US			RS			
		X1	Y1	Z1	X2	Y2	Z2	X3	Y3	Z3	X4	Y4	Z4	X5	Y5	Z5	X6	Y6	Z6	X7	Y7	Z7	X8	Y8	Z8	X9	Y9	Z9	X10	Y10	Z10	X11	Y11	Z11	X12	Y12	Z12	X13	Y13	Z13	X14	Y14	Z14	
473	4.7300	0.025270	0.102914	0.164400	0.018487	-0.114518	0.239797	0.008716	-0.001780	0.006980	0.004564	-0.141531	-0.061501	0.224822	-0.003858	0.157109	0.172646	0.041873	0.089967	0.105532	0.020005	0.214557	0.102455	-0.097837	0.244398	0.033659	0.005939	0.011927	0.234459	0.013987	0.116725	0.328485	-0.199005	-0.055242	0.238631	-0.243325	-0.084795	0.188575	0.023677	-0.100821	0.243187	0.032312	-0.046351	
474	4.7400	0.025340	0.102910	0.164329	0.018547	-0.114512	0.239758	0.008730	-0.001777	0.006923	0.004573	-0.141513	-0.061600	0.224938	-0.003875	0.156935	0.172666	0.041809	0.089821	0.105629	0.020033	0.214481	0.102515	-0.097800	0.244279	0.033638	0.005933	0.011847	0.234527	0.013958	0.116511	0.328290	-0.198373	-0.056218	0.238499	-0.243266	-0.085148	0.186161	0.023519	-0.095678	0.241081	0.031137	-0.041167	
475	4.7500	0.025399	0.102911	0.164257	0.018595	-0.114505	0.239726	0.008713	-0.001765	0.006843	0.004573	-0.141485	-0.061688	0.225041	-0.003901	0.156762	0.172672	0.041713	0.089707	0.105713	0.020069	0.214411	0.102558	-0.097754	0.244215	0.033618	0.005903	0.011787	0.234457	0.013872	0.116256	0.328074	-0.197733	-0.057195	0.238346	-0.243221	-0.085507	0.184023	0.023348	-0.090684	0.239131	0.029826	-0.036092	
476	4.7600	0.025446	0.102918	0.164186	0.018630	-0.114499	0.239703	0.008669	-0.001749	0.006737	0.004561	-0.141447	-0.061755	0.225126	-0.003947	0.156596	0.172642	0.041568	0.089624	0.105785	0.020107	0.214346	0.102588	-0.097700	0.244226	0.033591	0.005850	0.011741	0.234300	0.013721	0.115961	0.327843	-0.197084	-0.058158	0.238152	-0.243173	-0.085876	0.182133	0.023179	-0.085871	0.237363	0.028421	-0.031174	
477	4.7700	0.025486	0.102922	0.164118	0.018651	-0.114495	0.239688	0.008614	-0.001737	0.006607	0.004535	-0.141401	-0.061793	0.225204	-0.004024	0.156443	0.172571	0.041389	0.089526	0.105846	0.020138	0.214289	0.102608	-0.097646	0.244294	0.033551	0.005801	0.011661	0.234133	0.013521	0.115664	0.327582	-0.196442	-0.059081	0.237894	-0.243110	-0.086254	0.180425	0.022987	-0.081289	0.235803	0.026970	-0.026470	
478	4.7800	0.025530	0.102915	0.164054	0.018657	-0.114496	0.239684	0.008565	-0.001739	0.006459	0.004496	-0.141354	-0.061798	0.225291	-0.004129	0.156313	0.172452	0.041164	0.089360	0.105897	0.020151	0.214245	0.102618	-0.097603	0.244387	0.033483	0.005778	0.011479	0.234012	0.013309	0.115406	0.327260	-0.195822	-0.059937	0.237553	-0.243024	-0.086634	0.178843	0.022732	-0.076950	0.234467	0.025520	-0.022045	
479	4.7900	0.025589	0.102891	0.164002	0.018647	-0.114500	0.239690	0.008533	-0.001760	0.006305	0.004452	-0.141315	-0.061779	0.225398	-0.004245	0.156219	0.172299	0.040840	0.089154	0.105937	0.020142	0.214223	0.102608	-0.097579	0.244487	0.033390	0.005804	0.011169	0.233938	0.013119	0.115209	0.326858	-0.195234	-0.060711	0.237127	-0.242918	-0.087003	0.177385	0.022385	-0.072835	0.233357	0.024126	-0.017969	
480	4.8000	0.025663	0.102860	0.163965	0.018620	-0.114510	0.239708	0.008526	-0.001796	0.006159	0.004415	-0.141293	-0.061755	0.225513	-0.004352	0.156174	0.172258	0.040392	0.089124	0.105966	0.020117	0.214227	0.102570	-0.097576	0.244588	0.033327	0.005862	0.010864	0.233885	0.012975	0.115072	0.326383	-0.194690	-0.061408	0.236628	-0.242798	-0.087347	0.176081	0.021947	-0.068951	0.232467	0.022855	-0.014306	
481	4.8100	0.025740	0.102834	0.163945	0.018575	-0.114524	0.239738	0.008544	-0.001838	0.006043	0.004397	-0.141297	-0.061751	0.225611	-0.004436	0.156179	0.172638	0.039860	0.089652	0.105982	0.020087	0.214261	0.102501	-0.097592	0.244690	0.033341	0.005887	0.010784	0.233843	0.012889	0.115004	0.325850	-0.194202	-0.062037	0.236078	-0.242668	-0.087654	0.174960	0.021462	-0.065363	0.231784	0.021767	-0.011116	
482	4.8200	0.025807	0.102817	0.163940	0.018512	-0.114543	0.239781	0.008589	-0.001876	0.005972	0.004407	-0.141329	-0.061784	0.225698	-0.004504	0.156226	0.173615	0.039324	0.090993	0.105979	0.020062	0.214323	0.102405	-0.097616	0.244795	0.033403	0.005854	0.010927	0.233823	0.012841	0.115035	0.325290	-0.193781	-0.062591	0.235505	-0.242528	-0.087913	0.174034	0.021007	-0.062218	0.231284	0.020905	-0.008457	
483	4.8300	0.025855	0.102808	0.163950	0.018431	-0.114567	0.239836	0.008664	-0.001900	0.005951	0.004446	-0.141379	-0.061855	0.225805	-0.004601	0.156328	0.174968	0.038983	0.092910	0.105942	0.020038	0.214420	0.102288	-0.097642	0.244907	0.033467	0.005803	0.011129	0.233843	0.012787	0.115216	0.324748	-0.193433	-0.063043	0.234932	-0.242375	-0.088118	0.173299	0.020666	-0.059724	0.230937	0.020294	-0.006391	
484	4.8400	0.025886	0.102797	0.163981	0.018334	-0.114596	0.239901	0.008769	-0.001909	0.005975	0.004508	-0.141428	-0.061944	0.225932	-0.004780	0.156545	0.176182	0.038990	0.094736	0.105864	0.020001	0.214569	0.102157	-0.097675	0.245037	0.033537	0.005779	0.011289	0.233914	0.012683	0.115598	0.324259	-0.193151	-0.063371	0.234377	-0.242210	-0.088262	0.172755	0.020485	-0.058030	0.230701	0.019942	-0.004968	
